<svg xmlns="http://www.w3.org/2000/svg" width="1320" height="780" viewBox="0 0 1320 780" role="img" aria-label="Wiring: a USB-C charger feeds a USB-C breakout whose VBUS and GND form a 5 V rail and a ground rail. The 5 V rail feeds the ESP32-H2-Zero and the ESP32-S3-Zero 5V pins through one 1N5817 diode each, the 74HCT125 VCC and the LED stick. H2 TX goes to S3 GPIO5, and S3 GPIO6 goes through a 1 kΩ resistor to H2 RX. S3 GPIO13 goes to 74HCT125 input 1A with a 10 kΩ pull-down; output 1Y goes through 330 Ω to the stick's DIN. A 1000 µF capacitor sits across the rails at the stick.">
<style>
  svg { --bg: #f4f5f2; --surface: #ffffff; --fg: #1a1d1b; --muted: #5a625c; --accent: #17614a; --accent-soft: #e2eee8; --w5v: #d0312d; --wgnd: #2b2f2d; --wdata: #b97f00; --lit: #f2a900; --wuart: #7a4fc9; --high: #b42318; --high-soft: #fbe9e7; --f-display: "Arial Narrow", "Helvetica Neue", Arial, sans-serif; --f-mono: ui-monospace, Menlo, Consolas, monospace; color: var(--fg); font-family: var(--f-mono); }
  @media (prefers-color-scheme: dark) { svg { --bg: #111412; --surface: #191d1b; --fg: #e5e9e6; --muted: #9ba49e; --accent: #5cc79e; --accent-soft: #1b2d25; --w5v: #ff6b63; --wgnd: #c3cac5; --wdata: #f0b429; --lit: #ffc233; --wuart: #b79cff; --high: #ff8a80; --high-soft: #3a1c1a; } }
</style>
<rect width="1320" height="780" rx="8" fill="var(--surface)"/>
        <g font-size="12" fill="currentColor">

        <!-- ===== Rails ===== -->
        <polyline points="290,160 290,200 1240,200" fill="none" stroke="var(--w5v)" stroke-width="3"/>
        <polyline points="240,160 240,740 1240,740" fill="none" stroke="var(--wgnd)" stroke-width="3"/>
        <text x="400" y="190" fill="var(--w5v)" font-weight="500">+5 V rail</text>
        <text x="400" y="762" fill="var(--wgnd)" font-weight="500">GND rail (common ground)</text>

        <!-- ===== USB-C charger and breakout ===== -->
        <rect x="30" y="60" width="122" height="60" rx="4" fill="var(--bg)" stroke="currentColor" stroke-width="1.5"/>
        <text x="42" y="86" font-family="var(--f-display)" font-size="14" font-weight="600">USB-C CHARGER</text>
        <text x="42" y="106" fill="var(--muted)" font-size="11">GaN · Class II</text>
        <line x1="152" y1="100" x2="190" y2="100" stroke="currentColor" stroke-width="3"/>
        <rect x="186" y="90" width="14" height="20" rx="3" fill="var(--surface)" stroke="currentColor" stroke-width="1.5"/>
        <rect x="200" y="62" width="130" height="68" rx="4" fill="var(--bg)" stroke="currentColor" stroke-width="1.5"/>
        <text x="212" y="86" font-family="var(--f-display)" font-size="14" font-weight="600">USB-C BREAKOUT</text>
        <text x="212" y="104" fill="var(--muted)" font-size="10">5.1 kΩ on CC1/CC2</text>
        <text x="212" y="118" fill="var(--muted)" font-size="10">→ plain 5 V, no PD</text>
        <g font-size="10" text-anchor="middle">
          <rect x="223" y="130" width="34" height="30" fill="var(--surface)" stroke="currentColor"/><text x="240" y="149">GND</text>
          <rect x="273" y="130" width="34" height="30" fill="var(--surface)" stroke="currentColor"/><text x="290" y="149">VBUS</text>
        </g>

        <!-- ===== Checks before wiring the rail ===== -->
        <text x="30" y="214" font-size="11" font-weight="600">Before wiring the rail:</text>
        <text x="30" y="232" font-size="11" fill="var(--muted)">VBUS reads 5.0–5.2 V</text>
        <text x="30" y="248" font-size="11" fill="var(--muted)">CC1/CC2 ≈ 5.1 kΩ to GND</text>
        <text x="30" y="264" font-size="11" fill="var(--muted)">CC, D+, D− unconnected</text>
        <text x="30" y="280" font-size="11" fill="var(--high)">never a 9–20 V PD board</text>

        <!-- ===== H2 5V feed with 1N5817 ===== -->
        <circle cx="300" cy="200" r="4.5" fill="var(--w5v)"/>
        <line x1="300" y1="200" x2="300" y2="250" stroke="var(--w5v)" stroke-width="3"/>
        <polygon points="290,250 310,250 300,266" fill="var(--w5v)"/>
        <line x1="289" y1="268" x2="311" y2="268" stroke="var(--w5v)" stroke-width="2.5"/>
        <polyline points="300,268 300,430 330,430" fill="none" stroke="var(--w5v)" stroke-width="3"/>
        <text x="318" y="258" font-size="11" font-weight="600">1N5817</text>
        <text x="318" y="272" font-size="10" fill="var(--muted)">Schottky</text>

        <!-- H2 GND -->
        <polyline points="330,458 240,458" fill="none" stroke="var(--wgnd)" stroke-width="3"/>
        <circle cx="240" cy="458" r="4.5" fill="var(--wgnd)"/>

        <!-- ===== S3 5V feed with 1N5817 ===== -->
        <circle cx="600" cy="200" r="4.5" fill="var(--w5v)"/>
        <line x1="600" y1="200" x2="600" y2="228" stroke="var(--w5v)" stroke-width="3"/>
        <polygon points="590,228 610,228 600,244" fill="var(--w5v)"/>
        <line x1="589" y1="246" x2="611" y2="246" stroke="var(--w5v)" stroke-width="2.5"/>
        <polyline points="600,246 600,280 640,280" fill="none" stroke="var(--w5v)" stroke-width="3"/>
        <text x="584" y="236" font-size="11" text-anchor="end" font-weight="600">1N5817</text>
        <text x="584" y="251" font-size="10" text-anchor="end" fill="var(--muted)">Schottky</text>

        <!-- S3 GND: hops over the H2 5V feed -->
        <path d="M640 308 L620 308 L620 345 L306 345 A6 6 0 0 0 294 345 L240 345" fill="none" stroke="var(--wgnd)" stroke-width="3"/>
        <circle cx="240" cy="345" r="4.5" fill="var(--wgnd)"/>

        <!-- ===== ESP32-H2-Zero (radio) ===== -->
        <rect x="390" y="388" width="60" height="16" rx="4" fill="var(--surface)" stroke="currentColor"/>
        <text x="420" y="380" text-anchor="middle" font-size="11" fill="var(--muted)">USB-C (flashing)</text>
        <rect x="330" y="402" width="180" height="290" rx="6" fill="var(--accent-soft)" stroke="var(--accent)" stroke-width="1.5"/>
        <text x="420" y="540" text-anchor="middle" font-family="var(--f-display)" font-size="15" font-weight="600">ESP32-H2-Zero</text>
        <text x="420" y="558" text-anchor="middle" font-size="11" fill="var(--muted)">Thread radio (RCP)</text>
        <text x="420" y="682" text-anchor="middle" font-size="10" fill="var(--muted)">antenna end</text>
        <g font-size="11">
          <g text-anchor="start">
            <text x="340" y="434" font-weight="600">5V</text>
            <text x="340" y="462" font-weight="600">GND</text>
            <text x="340" y="490" fill="var(--muted)">3V3</text>
            <text x="340" y="518" fill="var(--muted)">0</text>
            <text x="340" y="546" fill="var(--muted)">1</text>
            <text x="340" y="574" fill="var(--muted)">2</text>
            <text x="340" y="602" fill="var(--muted)">3</text>
            <text x="340" y="630" fill="var(--muted)">4</text>
            <text x="340" y="658" fill="var(--muted)">5</text>
          </g>
          <g text-anchor="end">
            <text x="500" y="434" font-weight="600">TX</text>
            <text x="500" y="462" font-weight="600">RX</text>
            <text x="500" y="490" fill="var(--muted)">25</text>
            <text x="500" y="518" fill="var(--muted)">22</text>
            <text x="500" y="546" fill="var(--muted)">14</text>
            <text x="500" y="574" fill="var(--muted)">13</text>
            <text x="500" y="602" fill="var(--muted)">12</text>
            <text x="500" y="630" fill="var(--muted)">11</text>
            <text x="500" y="658" fill="var(--muted)">10</text>
          </g>
          <g fill="var(--surface)" stroke="currentColor">
            <circle cx="330" cy="430" r="4"/><circle cx="330" cy="458" r="4"/><circle cx="330" cy="486" r="4"/><circle cx="330" cy="514" r="4"/><circle cx="330" cy="542" r="4"/><circle cx="330" cy="570" r="4"/><circle cx="330" cy="598" r="4"/><circle cx="330" cy="626" r="4"/><circle cx="330" cy="654" r="4"/>
            <circle cx="510" cy="430" r="4"/><circle cx="510" cy="458" r="4"/><circle cx="510" cy="486" r="4"/><circle cx="510" cy="514" r="4"/><circle cx="510" cy="542" r="4"/><circle cx="510" cy="570" r="4"/><circle cx="510" cy="598" r="4"/><circle cx="510" cy="626" r="4"/><circle cx="510" cy="654" r="4"/>
          </g>
        </g>

        <!-- ===== UART between boards ===== -->
        <polyline points="510,430 560,430 560,476 640,476" fill="none" stroke="var(--wuart)" stroke-width="3"/>
        <polyline points="640,504 622,504" fill="none" stroke="var(--wuart)" stroke-width="3"/>
        <rect x="592" y="498" width="30" height="12" fill="var(--surface)" stroke="currentColor" stroke-width="1.5"/>
        <text x="607" y="492" text-anchor="middle" font-size="10" font-weight="600">1 kΩ</text>
        <polyline points="592,504 540,504 540,458 510,458" fill="none" stroke="var(--wuart)" stroke-width="3" stroke-dasharray="8 4"/>
        <text x="516" y="421" font-size="10" fill="var(--wuart)" font-weight="600">H2 TX → S3 RX</text>
        <text x="546" y="522" font-size="10" fill="var(--wuart)" font-weight="600">S3 TX → H2 RX</text>

        <!-- ===== ESP32-S3-Zero-N8R8 ===== -->
        <rect x="700" y="238" width="60" height="16" rx="4" fill="var(--surface)" stroke="currentColor"/>
        <text x="730" y="230" text-anchor="middle" font-size="11" fill="var(--muted)">USB-C → computer (console)</text>
        <rect x="640" y="252" width="180" height="290" rx="6" fill="var(--accent-soft)" stroke="var(--accent)" stroke-width="1.5"/>
        <text x="730" y="382" text-anchor="middle" font-family="var(--f-display)" font-size="15" font-weight="600">ESP32-S3-Zero</text>
        <text x="730" y="399" text-anchor="middle" font-size="11" fill="var(--muted)">N8R8 · Matter controller</text>
        <text x="730" y="426" text-anchor="middle" font-size="10" fill="var(--muted)">onboard RGB = GPIO21</text>
        <text x="730" y="441" text-anchor="middle" font-size="10" fill="var(--muted)">BOOT = GPIO0</text>
        <text x="730" y="532" text-anchor="middle" font-size="10" fill="var(--muted)">antenna end</text>
        <g font-size="11">
          <g text-anchor="start">
            <text x="650" y="284" font-weight="600">5V</text>
            <text x="650" y="312" font-weight="600">GND</text>
            <text x="650" y="340" fill="var(--muted)">3V3</text>
            <text x="650" y="368" fill="var(--muted)">1</text>
            <text x="650" y="396" fill="var(--muted)">2</text>
            <text x="650" y="424" fill="var(--muted)">3</text>
            <text x="650" y="452" fill="var(--muted)">4</text>
            <text x="650" y="480" font-weight="600">5</text>
            <text x="650" y="508" font-weight="600">6</text>
          </g>
          <g text-anchor="end">
            <text x="810" y="284" fill="var(--muted)">TX</text>
            <text x="810" y="312" fill="var(--muted)">RX</text>
            <text x="810" y="340" font-weight="600">13</text>
            <text x="810" y="368" fill="var(--muted)">12</text>
            <text x="810" y="396" fill="var(--muted)">11</text>
            <text x="810" y="424" fill="var(--muted)">10</text>
            <text x="810" y="452" fill="var(--muted)">9</text>
            <text x="810" y="480" fill="var(--muted)">8</text>
            <text x="810" y="508" fill="var(--muted)">7</text>
          </g>
          <g fill="var(--surface)" stroke="currentColor">
            <circle cx="640" cy="280" r="4"/><circle cx="640" cy="308" r="4"/><circle cx="640" cy="336" r="4"/><circle cx="640" cy="364" r="4"/><circle cx="640" cy="392" r="4"/><circle cx="640" cy="420" r="4"/><circle cx="640" cy="448" r="4"/><circle cx="640" cy="476" r="4"/><circle cx="640" cy="504" r="4"/>
            <circle cx="820" cy="280" r="4"/><circle cx="820" cy="308" r="4"/><circle cx="820" cy="336" r="4"/><circle cx="820" cy="364" r="4"/><circle cx="820" cy="392" r="4"/><circle cx="820" cy="420" r="4"/><circle cx="820" cy="448" r="4"/><circle cx="820" cy="476" r="4"/><circle cx="820" cy="504" r="4"/>
          </g>
        </g>

        <!-- ===== GPIO13 → 1A, with pull-down ===== -->
        <line x1="820" y1="336" x2="900" y2="336" stroke="var(--wdata)" stroke-width="3"/>
        <text x="826" y="326" font-size="10" fill="var(--wdata)" font-weight="600">3.3 V data</text>
        <circle cx="860" cy="336" r="4.5" fill="var(--wdata)"/>
        <line x1="860" y1="336" x2="860" y2="470" stroke="var(--wdata)" stroke-width="2"/>
        <rect x="854" y="470" width="12" height="36" fill="var(--surface)" stroke="currentColor" stroke-width="1.5"/>
        <line x1="860" y1="506" x2="860" y2="740" stroke="var(--wgnd)" stroke-width="2"/>
        <text x="872" y="486" font-size="11">10 kΩ</text>
        <text x="872" y="500" font-size="10" fill="var(--muted)">pull-down</text>
        <circle cx="860" cy="740" r="4.5" fill="var(--wgnd)"/>

        <!-- ===== 74HCT125 ===== -->
        <rect x="900" y="290" width="120" height="110" rx="4" fill="var(--bg)" stroke="currentColor" stroke-width="1.5"/>
        <g font-size="11">
          <text x="908" y="340">1A</text>
          <text x="1014" y="340" text-anchor="end">1Y</text>
          <text x="960" y="308" text-anchor="middle">VCC</text>
          <text x="935" y="392" text-anchor="middle">GND</text>
          <text x="985" y="392" text-anchor="middle">1OE</text>
          <line x1="975" y1="380" x2="995" y2="380" stroke="currentColor"/>
        </g>
        <text x="960" y="360" text-anchor="middle" font-family="var(--f-display)" font-size="14" font-weight="600">74HCT125</text>
        <text x="960" y="375" text-anchor="middle" font-size="10" fill="var(--muted)">gate 1, 5 V</text>
        <line x1="960" y1="200" x2="960" y2="290" stroke="var(--w5v)" stroke-width="2.5"/>
        <circle cx="960" cy="200" r="4.5" fill="var(--w5v)"/>
        <line x1="935" y1="400" x2="935" y2="740" stroke="var(--wgnd)" stroke-width="2.5"/>
        <polyline points="985,400 985,422 935,422" fill="none" stroke="var(--wgnd)" stroke-width="2"/>
        <circle cx="935" cy="422" r="4" fill="var(--wgnd)"/>
        <circle cx="935" cy="740" r="4.5" fill="var(--wgnd)"/>

        <!-- ===== 1Y → 330Ω → DIN ===== -->
        <line x1="1020" y1="336" x2="1035" y2="336" stroke="var(--wdata)" stroke-width="3"/>
        <rect x="1035" y="330" width="40" height="12" fill="var(--surface)" stroke="currentColor" stroke-width="1.5"/>
        <line x1="1075" y1="336" x2="1110" y2="336" stroke="var(--wdata)" stroke-width="3"/>
        <text x="1055" y="322" text-anchor="middle" font-size="11">330 Ω</text>
        <text x="1055" y="360" text-anchor="middle" font-size="10" fill="var(--wdata)" font-weight="600">5 V data</text>

        <!-- ===== LED stick ===== -->
        <polyline points="1095,200 1095,280 1110,280" fill="none" stroke="var(--w5v)" stroke-width="3"/>
        <circle cx="1095" cy="200" r="4.5" fill="var(--w5v)"/>
        <polyline points="1095,740 1095,500 1110,500" fill="none" stroke="var(--wgnd)" stroke-width="3"/>
        <circle cx="1095" cy="740" r="4.5" fill="var(--wgnd)"/>
        <text x="1155" y="238" text-anchor="middle" font-family="var(--f-display)" font-size="14" font-weight="600">8× WS2812</text>
        <rect x="1110" y="250" width="90" height="290" rx="4" fill="var(--bg)" stroke="currentColor" stroke-width="1.5"/>
        <g font-size="10">
          <text x="1116" y="284">4-7VDC</text>
          <text x="1116" y="340" font-weight="600">DIN</text>
          <text x="1116" y="504">GND</text>
        </g>
        <g stroke="currentColor" stroke-width="1.2">
          <circle cx="1180" cy="280" r="9" fill="var(--lit)" stroke="var(--lit)"/>
          <circle cx="1180" cy="310" r="9" fill="var(--surface)"/>
          <circle cx="1180" cy="340" r="9" fill="var(--surface)"/>
          <circle cx="1180" cy="370" r="9" fill="var(--surface)"/>
          <circle cx="1180" cy="400" r="9" fill="var(--surface)"/>
          <circle cx="1180" cy="430" r="9" fill="var(--surface)"/>
          <circle cx="1180" cy="460" r="9" fill="var(--surface)"/>
          <circle cx="1180" cy="490" r="9" fill="var(--surface)"/>
        </g>
        <g font-size="9" text-anchor="middle" fill="currentColor">
          <text x="1180" y="283" fill="#1a1d1b">1</text><text x="1180" y="313">2</text><text x="1180" y="343">3</text><text x="1180" y="373">4</text><text x="1180" y="403">5</text><text x="1180" y="433">6</text><text x="1180" y="463">7</text><text x="1180" y="493">8</text>
        </g>
        <text x="1155" y="558" text-anchor="middle" font-size="10" fill="var(--muted)">DOUT end unused</text>

        <!-- ===== Bulk cap ===== -->
        <line x1="1240" y1="200" x2="1240" y2="462" stroke="var(--w5v)" stroke-width="2.5"/>
        <line x1="1224" y1="462" x2="1256" y2="462" stroke="currentColor" stroke-width="3"/>
        <path d="M1224 478 Q1240 468 1256 478" fill="none" stroke="currentColor" stroke-width="3"/>
        <line x1="1240" y1="474" x2="1240" y2="740" stroke="var(--wgnd)" stroke-width="2.5"/>
        <text x="1228" y="454" font-size="12" text-anchor="end">+</text>
        <text x="1262" y="460" font-size="11">1000 µF</text>
        <text x="1262" y="475" font-size="10" fill="var(--muted)">≥ 10 V</text>
        <circle cx="1240" cy="200" r="4.5" fill="var(--w5v)"/>
        <circle cx="1240" cy="740" r="4.5" fill="var(--wgnd)"/>
        </g>
      </svg>
